<!-- icon666.com - MILLIONS OF FREE VECTOR ICONS --><svg version="1.1" id="Layer_1" xmlns="http://www.w3.org/2000/svg" xmlns:xlink="http://www.w3.org/1999/xlink" x="0px" y="0px" viewBox="0 0 295.238 295.238" style="enable-background:new 0 0 295.238 295.238;" xml:space="preserve"><g><g><g><path d="M47.619,275.2c0,11.048,8.99,20.038,20.038,20.038h159.924c11.048,0,20.038-8.99,20.038-20.038V57.143h-200V275.2z M57.143,66.667h180.952V275.2c0,5.795-4.714,10.514-10.514,10.514H67.657c-5.8,0-10.514-4.719-10.514-10.514V66.667z"></path><path d="M252.381,19.048H200v-4.762C200,6.41,193.59,0,185.714,0h-76.19c-7.876,0-14.286,6.41-14.286,14.286v4.762H42.857 c-7.876,0-14.286,6.41-14.286,14.286v19.048c0,7.876,6.41,14.286,14.286,14.286v-9.524c-2.629,0-4.762-2.133-4.762-4.762V33.333 c0-2.624,2.133-4.762,4.762-4.762h209.524c2.629,0,4.762,2.133,4.762,4.762v19.048c0,2.624-2.133,4.762-4.762,4.762v9.524 c7.876,0,14.286-6.41,14.286-14.286V33.333C266.667,25.457,260.257,19.048,252.381,19.048z M190.476,19.048h-85.714v-4.762 c0-2.624,2.133-4.762,4.762-4.762h76.19c2.629,0,4.762,2.133,4.762,4.762V19.048z"></path><rect x="104.762" y="238.095" width="9.524" height="38.095"></rect><path d="M76.19,104.762c0-7.876,6.41-14.286,14.286-14.286s14.286,6.41,14.286,14.286v28.571h9.524v-28.571 c0-13.129-10.681-23.81-23.81-23.81c-13.129,0-23.81,10.681-23.81,23.81V276.19h9.524V104.762z"></path><path d="M133.333,104.762c0-7.876,6.41-14.286,14.286-14.286c7.876,0,14.286,6.41,14.286,14.286v9.524h9.524v-9.524 c0-13.129-10.681-23.81-23.81-23.81c-13.129,0-23.81,10.681-23.81,23.81v9.524h9.524V104.762z"></path><rect x="161.905" y="238.095" width="9.524" height="38.095"></rect><rect x="123.81" y="242.857" width="9.524" height="33.333"></rect><path d="M190.476,104.762c0-7.876,6.41-14.286,14.286-14.286c7.876,0,14.286,6.41,14.286,14.286V276.19h9.524V104.762 c0-13.129-10.681-23.81-23.81-23.81c-13.129,0-23.81,10.681-23.81,23.81v38.095h9.524V104.762z"></path><rect x="180.952" y="238.095" width="9.524" height="38.095"></rect><path d="M190.767,176.19H200v-9.524h-21.595l-10.938,16.405l7.924,5.281l6.124-9.186l16.062,28.419 c1.143,2.024,0.362,3.8-0.029,4.471c-0.39,0.671-1.552,2.229-3.876,2.229h-36.529v9.524h36.529c5.038,0,9.562-2.595,12.1-6.948 c2.538-4.353,2.576-9.567,0.1-13.957L190.767,176.19z"></path><path d="M105.562,145.495l10.938,16.41h21.595v-9.524h-9.233l14.848-26.267c1.167-2.057,3.124-2.281,3.91-2.281 s2.743,0.219,3.91,2.281l18.862,33.371l8.286-4.686l-18.857-33.371c-2.526-4.461-7.083-7.118-12.202-7.118 s-9.676,2.657-12.2,7.114L119.61,149.4l-6.124-9.186L105.562,145.495z"></path><path d="M124.61,207.405l4.586,6.881h-27.629c-2.324,0-3.486-1.557-3.876-2.224c-0.39-0.667-1.171-2.448-0.033-4.467l19.2-33.967 l-8.286-4.686l-19.205,33.971c-2.476,4.386-2.438,9.605,0.1,13.952c2.538,4.347,7.062,6.943,12.1,6.943h27.629l-4.586,6.881 l7.924,5.281l11.286-16.924l-11.286-16.929L124.61,207.405z"></path></g></g></g></svg>