<!-- icon666.com - MILLIONS OF FREE VECTOR ICONS --><svg version="1.1" id="Capa_1" xmlns="http://www.w3.org/2000/svg" xmlns:xlink="http://www.w3.org/1999/xlink" x="0px" y="0px" viewBox="0 0 551.983 551.983" style="enable-background:new 0 0 551.983 551.983;" xml:space="preserve"><g><path d="M547.696,111.49L440.669,4.473c-5.722-5.722-15.031-5.722-20.759,0l-71.508,71.505c-1.324,1.324-2.323,2.849-3.033,4.459 l126.343,126.349c1.626-0.706,3.145-1.711,4.469-3.032l71.515-71.505C553.412,126.53,553.412,117.214,547.696,111.49z M447.135,40.776c-2.73-2.828-11.029-15.478-15.516-12.664c-6.69,4.215-11.088,11.379-16.49,16.991 c-4.38,4.551-11.296-2.385-6.922-6.918c6.768-7.022,12.867-17.812,22.975-20.307c9.534-2.355,17.42,10.32,22.863,15.986 C458.425,38.403,451.51,45.334,447.135,40.776z M330.824,93.565L70.168,354.206c-1.017,1.035-1.841,2.164-2.495,3.388 c0.175,0.13,0.352,0.248,0.515,0.413l126.446,126.449c1.185-0.65,2.299-1.454,3.304-2.459l260.646-260.652 c1.897-1.889,3.145-4.17,3.783-6.594L337.42,89.789C334.997,90.424,332.709,91.677,330.824,93.565z M424.929,221.566 l-219.13,219.132c-4.46,4.463-11.384-2.458-6.925-6.927l219.133-219.127C422.47,210.176,429.391,217.101,424.929,221.566z M10.827,504.062l36.945,36.906l-29.699,9.983c-5.352,1.797-10.708,0.703-14.322-2.908s-4.696-8.973-2.899-14.315L10.827,504.062z M56.399,365.815l129.549,129.552l-3.463,2.53c-2.099,1.549-4.271,2.689-6.44,3.422l-120.187,40.4l-2.341-6.945l120.187-40.412 c0.204-0.07,0.411-0.142,0.624-0.23L57.664,377.472c-0.086,0.201-0.16,0.407-0.23,0.614L17.849,495.811l-6.954-2.335 l39.584-117.725c0.742-2.217,1.88-4.386,3.381-6.454L56.399,365.815z"></path></g></svg>